<svg xmlns="http://www.w3.org/2000/svg" version="1.1" xmlns:xlink="http://www.w3.org/1999/xlink" xmlns:svgjs="http://svgjs.dev/svgjs" viewBox="0 0 800 800" opacity="0.56"><g fill="none" stroke-width="32" stroke="hsl(335, 77%, 50%)" stroke-linecap="round" stroke-dasharray="71 25" transform="matrix(1.2,0,0,1.2,-80.00000152587887,-79.99999847412107)"><line x1="175" y1="400" x2="625" y2="400" transform="rotate(0, 400, 400)" opacity="0.21"></line><line x1="350.5" y1="400" x2="449.5" y2="400" transform="rotate(1, 400, 400)" opacity="0.72"></line><line x1="112" y1="400" x2="688" y2="400" transform="rotate(2, 400, 400)" opacity="0.48"></line><line x1="153.5" y1="400" x2="646.5" y2="400" transform="rotate(3, 400, 400)" opacity="0.17"></line><line x1="127" y1="400" x2="673" y2="400" transform="rotate(4, 400, 400)" opacity="0.86"></line><line x1="298.5" y1="400" x2="501.5" y2="400" transform="rotate(5, 400, 400)" opacity="0.33"></line><line x1="292" y1="400" x2="508" y2="400" transform="rotate(6, 400, 400)" opacity="0.69"></line><line x1="342" y1="400" x2="458" y2="400" transform="rotate(7, 400, 400)" opacity="0.19"></line><line x1="273.5" y1="400" x2="526.5" y2="400" transform="rotate(8, 400, 400)" opacity="0.27"></line><line x1="164" y1="400" x2="636" y2="400" transform="rotate(9, 400, 400)" opacity="0.09"></line><line x1="186" y1="400" x2="614" y2="400" transform="rotate(10, 400, 400)" opacity="0.81"></line><line x1="127" y1="400" x2="673" y2="400" transform="rotate(11, 400, 400)" opacity="0.99"></line><line x1="211.5" y1="400" x2="588.5" y2="400" transform="rotate(12, 400, 400)" opacity="0.21"></line><line x1="213.5" y1="400" x2="586.5" y2="400" transform="rotate(13, 400, 400)" opacity="0.79"></line><line x1="226.5" y1="400" x2="573.5" y2="400" transform="rotate(14, 400, 400)" opacity="0.70"></line><line x1="149.5" y1="400" x2="650.5" y2="400" transform="rotate(15, 400, 400)" opacity="0.22"></line><line x1="243.5" y1="400" x2="556.5" y2="400" transform="rotate(16, 400, 400)" opacity="0.70"></line><line x1="93.5" y1="400" x2="706.5" y2="400" transform="rotate(17, 400, 400)" opacity="0.51"></line><line x1="316.5" y1="400" x2="483.5" y2="400" transform="rotate(18, 400, 400)" opacity="0.45"></line><line x1="220.5" y1="400" x2="579.5" y2="400" transform="rotate(19, 400, 400)" opacity="0.26"></line><line x1="163.5" y1="400" x2="636.5" y2="400" transform="rotate(20, 400, 400)" opacity="0.25"></line><line x1="368.5" y1="400" x2="431.5" y2="400" transform="rotate(21, 400, 400)" opacity="0.29"></line><line x1="293" y1="400" x2="507" y2="400" transform="rotate(22, 400, 400)" opacity="0.44"></line><line x1="358" y1="400" x2="442" y2="400" transform="rotate(23, 400, 400)" opacity="0.16"></line><line x1="332" y1="400" x2="468" y2="400" transform="rotate(24, 400, 400)" opacity="0.71"></line><line x1="245.5" y1="400" x2="554.5" y2="400" transform="rotate(25, 400, 400)" opacity="0.27"></line><line x1="138" y1="400" x2="662" y2="400" transform="rotate(26, 400, 400)" opacity="0.19"></line><line x1="175" y1="400" x2="625" y2="400" transform="rotate(27, 400, 400)" opacity="0.58"></line><line x1="110" y1="400" x2="690" y2="400" transform="rotate(28, 400, 400)" opacity="0.76"></line><line x1="130.5" y1="400" x2="669.5" y2="400" transform="rotate(29, 400, 400)" opacity="0.70"></line><line x1="341.5" y1="400" x2="458.5" y2="400" transform="rotate(30, 400, 400)" opacity="0.74"></line><line x1="150" y1="400" x2="650" y2="400" transform="rotate(31, 400, 400)" opacity="0.51"></line><line x1="336.5" y1="400" x2="463.5" y2="400" transform="rotate(32, 400, 400)" opacity="0.11"></line><line x1="279" y1="400" x2="521" y2="400" transform="rotate(33, 400, 400)" opacity="0.41"></line><line x1="283" y1="400" x2="517" y2="400" transform="rotate(34, 400, 400)" opacity="0.74"></line><line x1="354" y1="400" x2="446" y2="400" transform="rotate(35, 400, 400)" opacity="0.93"></line><line x1="112.5" y1="400" x2="687.5" y2="400" transform="rotate(36, 400, 400)" opacity="0.34"></line><line x1="219.5" y1="400" x2="580.5" y2="400" transform="rotate(37, 400, 400)" opacity="0.64"></line><line x1="273.5" y1="400" x2="526.5" y2="400" transform="rotate(38, 400, 400)" opacity="0.97"></line><line x1="102.5" y1="400" x2="697.5" y2="400" transform="rotate(39, 400, 400)" opacity="1.00"></line><line x1="200" y1="400" x2="600" y2="400" transform="rotate(40, 400, 400)" opacity="0.11"></line><line x1="199.5" y1="400" x2="600.5" y2="400" transform="rotate(41, 400, 400)" opacity="0.20"></line><line x1="200" y1="400" x2="600" y2="400" transform="rotate(42, 400, 400)" opacity="0.63"></line><line x1="203" y1="400" x2="597" y2="400" transform="rotate(43, 400, 400)" opacity="0.49"></line><line x1="221.5" y1="400" x2="578.5" y2="400" transform="rotate(44, 400, 400)" opacity="0.23"></line><line x1="207.5" y1="400" x2="592.5" y2="400" transform="rotate(45, 400, 400)" opacity="0.80"></line><line x1="186" y1="400" x2="614" y2="400" transform="rotate(46, 400, 400)" opacity="0.15"></line><line x1="217.5" y1="400" x2="582.5" y2="400" transform="rotate(47, 400, 400)" opacity="0.70"></line><line x1="300" y1="400" x2="500" y2="400" transform="rotate(48, 400, 400)" opacity="0.39"></line><line x1="184.5" y1="400" x2="615.5" y2="400" transform="rotate(49, 400, 400)" opacity="0.96"></line><line x1="144" y1="400" x2="656" y2="400" transform="rotate(50, 400, 400)" opacity="0.33"></line><line x1="332" y1="400" x2="468" y2="400" transform="rotate(51, 400, 400)" opacity="0.21"></line><line x1="214.5" y1="400" x2="585.5" y2="400" transform="rotate(52, 400, 400)" opacity="0.32"></line><line x1="259" y1="400" x2="541" y2="400" transform="rotate(53, 400, 400)" opacity="0.72"></line><line x1="113" y1="400" x2="687" y2="400" transform="rotate(54, 400, 400)" opacity="0.16"></line><line x1="229.5" y1="400" x2="570.5" y2="400" transform="rotate(55, 400, 400)" opacity="0.83"></line><line x1="246" y1="400" x2="554" y2="400" transform="rotate(56, 400, 400)" opacity="0.58"></line><line x1="100.5" y1="400" x2="699.5" y2="400" transform="rotate(57, 400, 400)" opacity="0.47"></line><line x1="317.5" y1="400" x2="482.5" y2="400" transform="rotate(58, 400, 400)" opacity="0.21"></line><line x1="154.5" y1="400" x2="645.5" y2="400" transform="rotate(59, 400, 400)" opacity="0.73"></line><line x1="288.5" y1="400" x2="511.5" y2="400" transform="rotate(60, 400, 400)" opacity="0.07"></line><line x1="95" y1="400" x2="705" y2="400" transform="rotate(61, 400, 400)" opacity="0.90"></line><line x1="157.5" y1="400" x2="642.5" y2="400" transform="rotate(62, 400, 400)" opacity="0.13"></line><line x1="286.5" y1="400" x2="513.5" y2="400" transform="rotate(63, 400, 400)" opacity="0.67"></line><line x1="140" y1="400" x2="660" y2="400" transform="rotate(64, 400, 400)" opacity="0.71"></line><line x1="360.5" y1="400" x2="439.5" y2="400" transform="rotate(65, 400, 400)" opacity="0.75"></line><line x1="127" y1="400" x2="673" y2="400" transform="rotate(66, 400, 400)" opacity="0.49"></line><line x1="182" y1="400" x2="618" y2="400" transform="rotate(67, 400, 400)" opacity="0.55"></line><line x1="256.5" y1="400" x2="543.5" y2="400" transform="rotate(68, 400, 400)" opacity="0.24"></line><line x1="167" y1="400" x2="633" y2="400" transform="rotate(69, 400, 400)" opacity="0.50"></line><line x1="268" y1="400" x2="532" y2="400" transform="rotate(70, 400, 400)" opacity="0.59"></line><line x1="157" y1="400" x2="643" y2="400" transform="rotate(71, 400, 400)" opacity="0.11"></line><line x1="194" y1="400" x2="606" y2="400" transform="rotate(72, 400, 400)" opacity="0.96"></line><line x1="265" y1="400" x2="535" y2="400" transform="rotate(73, 400, 400)" opacity="0.45"></line><line x1="263" y1="400" x2="537" y2="400" transform="rotate(74, 400, 400)" opacity="0.61"></line><line x1="184" y1="400" x2="616" y2="400" transform="rotate(75, 400, 400)" opacity="0.12"></line><line x1="132.5" y1="400" x2="667.5" y2="400" transform="rotate(76, 400, 400)" opacity="0.70"></line><line x1="254.5" y1="400" x2="545.5" y2="400" transform="rotate(77, 400, 400)" opacity="0.23"></line><line x1="128" y1="400" x2="672" y2="400" transform="rotate(78, 400, 400)" opacity="0.65"></line><line x1="160" y1="400" x2="640" y2="400" transform="rotate(79, 400, 400)" opacity="0.09"></line><line x1="138" y1="400" x2="662" y2="400" transform="rotate(80, 400, 400)" opacity="0.13"></line><line x1="100.5" y1="400" x2="699.5" y2="400" transform="rotate(81, 400, 400)" opacity="0.65"></line><line x1="180.5" y1="400" x2="619.5" y2="400" transform="rotate(82, 400, 400)" opacity="0.39"></line><line x1="219" y1="400" x2="581" y2="400" transform="rotate(83, 400, 400)" opacity="0.96"></line><line x1="235.5" y1="400" x2="564.5" y2="400" transform="rotate(84, 400, 400)" opacity="0.35"></line><line x1="192" y1="400" x2="608" y2="400" transform="rotate(85, 400, 400)" opacity="0.72"></line><line x1="332.5" y1="400" x2="467.5" y2="400" transform="rotate(86, 400, 400)" opacity="0.56"></line><line x1="189" y1="400" x2="611" y2="400" transform="rotate(87, 400, 400)" opacity="0.43"></line><line x1="197" y1="400" x2="603" y2="400" transform="rotate(88, 400, 400)" opacity="0.72"></line><line x1="168" y1="400" x2="632" y2="400" transform="rotate(89, 400, 400)" opacity="0.71"></line><line x1="129" y1="400" x2="671" y2="400" transform="rotate(90, 400, 400)" opacity="0.43"></line><line x1="337" y1="400" x2="463" y2="400" transform="rotate(91, 400, 400)" opacity="0.11"></line><line x1="296" y1="400" x2="504" y2="400" transform="rotate(92, 400, 400)" opacity="0.10"></line><line x1="94" y1="400" x2="706" y2="400" transform="rotate(93, 400, 400)" opacity="0.89"></line><line x1="234" y1="400" x2="566" y2="400" transform="rotate(94, 400, 400)" opacity="0.71"></line><line x1="156.5" y1="400" x2="643.5" y2="400" transform="rotate(95, 400, 400)" opacity="0.86"></line><line x1="140" y1="400" x2="660" y2="400" transform="rotate(96, 400, 400)" opacity="0.43"></line><line x1="249" y1="400" x2="551" y2="400" transform="rotate(97, 400, 400)" opacity="0.19"></line><line x1="237.5" y1="400" x2="562.5" y2="400" transform="rotate(98, 400, 400)" opacity="0.91"></line><line x1="197" y1="400" x2="603" y2="400" transform="rotate(99, 400, 400)" opacity="0.77"></line><line x1="155" y1="400" x2="645" y2="400" transform="rotate(100, 400, 400)" opacity="0.67"></line><line x1="242" y1="400" x2="558" y2="400" transform="rotate(101, 400, 400)" opacity="0.78"></line><line x1="354" y1="400" x2="446" y2="400" transform="rotate(102, 400, 400)" opacity="0.07"></line><line x1="303" y1="400" x2="497" y2="400" transform="rotate(103, 400, 400)" opacity="0.24"></line><line x1="261" y1="400" x2="539" y2="400" transform="rotate(104, 400, 400)" opacity="0.21"></line><line x1="260.5" y1="400" x2="539.5" y2="400" transform="rotate(105, 400, 400)" opacity="0.17"></line><line x1="285" y1="400" x2="515" y2="400" transform="rotate(106, 400, 400)" opacity="0.53"></line><line x1="102" y1="400" x2="698" y2="400" transform="rotate(107, 400, 400)" opacity="0.30"></line><line x1="345" y1="400" x2="455" y2="400" transform="rotate(108, 400, 400)" opacity="0.11"></line><line x1="120.5" y1="400" x2="679.5" y2="400" transform="rotate(109, 400, 400)" opacity="0.25"></line><line x1="140.5" y1="400" x2="659.5" y2="400" transform="rotate(110, 400, 400)" opacity="0.17"></line><line x1="191.5" y1="400" x2="608.5" y2="400" transform="rotate(111, 400, 400)" opacity="0.75"></line><line x1="156.5" y1="400" x2="643.5" y2="400" transform="rotate(112, 400, 400)" opacity="0.67"></line><line x1="331" y1="400" x2="469" y2="400" transform="rotate(113, 400, 400)" opacity="0.32"></line><line x1="375" y1="400" x2="425" y2="400" transform="rotate(114, 400, 400)" opacity="0.33"></line><line x1="301.5" y1="400" x2="498.5" y2="400" transform="rotate(115, 400, 400)" opacity="0.55"></line><line x1="158" y1="400" x2="642" y2="400" transform="rotate(116, 400, 400)" opacity="0.78"></line><line x1="330" y1="400" x2="470" y2="400" transform="rotate(117, 400, 400)" opacity="0.77"></line><line x1="177.5" y1="400" x2="622.5" y2="400" transform="rotate(118, 400, 400)" opacity="0.13"></line><line x1="137" y1="400" x2="663" y2="400" transform="rotate(119, 400, 400)" opacity="0.26"></line><line x1="350" y1="400" x2="450" y2="400" transform="rotate(120, 400, 400)" opacity="0.23"></line><line x1="132" y1="400" x2="668" y2="400" transform="rotate(121, 400, 400)" opacity="0.59"></line><line x1="200.5" y1="400" x2="599.5" y2="400" transform="rotate(122, 400, 400)" opacity="0.52"></line><line x1="109.5" y1="400" x2="690.5" y2="400" transform="rotate(123, 400, 400)" opacity="0.85"></line><line x1="125.5" y1="400" x2="674.5" y2="400" transform="rotate(124, 400, 400)" opacity="0.14"></line><line x1="243.5" y1="400" x2="556.5" y2="400" transform="rotate(125, 400, 400)" opacity="0.22"></line><line x1="313.5" y1="400" x2="486.5" y2="400" transform="rotate(126, 400, 400)" opacity="0.51"></line><line x1="175.5" y1="400" x2="624.5" y2="400" transform="rotate(127, 400, 400)" opacity="0.94"></line><line x1="339" y1="400" x2="461" y2="400" transform="rotate(128, 400, 400)" opacity="0.84"></line><line x1="281" y1="400" x2="519" y2="400" transform="rotate(129, 400, 400)" opacity="0.35"></line><line x1="183" y1="400" x2="617" y2="400" transform="rotate(130, 400, 400)" opacity="0.97"></line><line x1="365" y1="400" x2="435" y2="400" transform="rotate(131, 400, 400)" opacity="0.28"></line><line x1="180.5" y1="400" x2="619.5" y2="400" transform="rotate(132, 400, 400)" opacity="0.91"></line><line x1="337" y1="400" x2="463" y2="400" transform="rotate(133, 400, 400)" opacity="0.80"></line><line x1="127" y1="400" x2="673" y2="400" transform="rotate(134, 400, 400)" opacity="0.33"></line><line x1="256" y1="400" x2="544" y2="400" transform="rotate(135, 400, 400)" opacity="0.15"></line><line x1="128" y1="400" x2="672" y2="400" transform="rotate(136, 400, 400)" opacity="0.41"></line><line x1="353" y1="400" x2="447" y2="400" transform="rotate(137, 400, 400)" opacity="0.90"></line><line x1="310.5" y1="400" x2="489.5" y2="400" transform="rotate(138, 400, 400)" opacity="0.21"></line><line x1="175.5" y1="400" x2="624.5" y2="400" transform="rotate(139, 400, 400)" opacity="0.96"></line><line x1="354.5" y1="400" x2="445.5" y2="400" transform="rotate(140, 400, 400)" opacity="0.52"></line><line x1="290" y1="400" x2="510" y2="400" transform="rotate(141, 400, 400)" opacity="0.47"></line><line x1="327" y1="400" x2="473" y2="400" transform="rotate(142, 400, 400)" opacity="0.50"></line><line x1="336" y1="400" x2="464" y2="400" transform="rotate(143, 400, 400)" opacity="0.43"></line><line x1="182.5" y1="400" x2="617.5" y2="400" transform="rotate(144, 400, 400)" opacity="0.75"></line><line x1="298" y1="400" x2="502" y2="400" transform="rotate(145, 400, 400)" opacity="0.61"></line><line x1="308.5" y1="400" x2="491.5" y2="400" transform="rotate(146, 400, 400)" opacity="0.27"></line><line x1="310" y1="400" x2="490" y2="400" transform="rotate(147, 400, 400)" opacity="0.37"></line><line x1="111" y1="400" x2="689" y2="400" transform="rotate(148, 400, 400)" opacity="0.18"></line><line x1="174.5" y1="400" x2="625.5" y2="400" transform="rotate(149, 400, 400)" opacity="0.59"></line><line x1="126.5" y1="400" x2="673.5" y2="400" transform="rotate(150, 400, 400)" opacity="0.71"></line><line x1="255" y1="400" x2="545" y2="400" transform="rotate(151, 400, 400)" opacity="0.84"></line><line x1="153" y1="400" x2="647" y2="400" transform="rotate(152, 400, 400)" opacity="0.59"></line><line x1="224.5" y1="400" x2="575.5" y2="400" transform="rotate(153, 400, 400)" opacity="0.30"></line><line x1="162" y1="400" x2="638" y2="400" transform="rotate(154, 400, 400)" opacity="0.81"></line><line x1="369.5" y1="400" x2="430.5" y2="400" transform="rotate(155, 400, 400)" opacity="0.31"></line><line x1="154.5" y1="400" x2="645.5" y2="400" transform="rotate(156, 400, 400)" opacity="0.50"></line><line x1="217" y1="400" x2="583" y2="400" transform="rotate(157, 400, 400)" opacity="0.62"></line><line x1="244.5" y1="400" x2="555.5" y2="400" transform="rotate(158, 400, 400)" opacity="0.40"></line><line x1="240" y1="400" x2="560" y2="400" transform="rotate(159, 400, 400)" opacity="0.12"></line><line x1="249.5" y1="400" x2="550.5" y2="400" transform="rotate(160, 400, 400)" opacity="0.94"></line><line x1="312.5" y1="400" x2="487.5" y2="400" transform="rotate(161, 400, 400)" opacity="0.16"></line><line x1="148.5" y1="400" x2="651.5" y2="400" transform="rotate(162, 400, 400)" opacity="0.65"></line><line x1="291" y1="400" x2="509" y2="400" transform="rotate(163, 400, 400)" opacity="0.88"></line><line x1="125.5" y1="400" x2="674.5" y2="400" transform="rotate(164, 400, 400)" opacity="0.43"></line><line x1="356" y1="400" x2="444" y2="400" transform="rotate(165, 400, 400)" opacity="0.95"></line><line x1="161.5" y1="400" x2="638.5" y2="400" transform="rotate(166, 400, 400)" opacity="0.64"></line><line x1="293" y1="400" x2="507" y2="400" transform="rotate(167, 400, 400)" opacity="0.14"></line><line x1="185" y1="400" x2="615" y2="400" transform="rotate(168, 400, 400)" opacity="0.74"></line><line x1="201.5" y1="400" x2="598.5" y2="400" transform="rotate(169, 400, 400)" opacity="0.41"></line><line x1="231.5" y1="400" x2="568.5" y2="400" transform="rotate(170, 400, 400)" opacity="0.48"></line><line x1="151" y1="400" x2="649" y2="400" transform="rotate(171, 400, 400)" opacity="0.35"></line><line x1="327.5" y1="400" x2="472.5" y2="400" transform="rotate(172, 400, 400)" opacity="0.64"></line><line x1="307.5" y1="400" x2="492.5" y2="400" transform="rotate(173, 400, 400)" opacity="0.94"></line><line x1="273" y1="400" x2="527" y2="400" transform="rotate(174, 400, 400)" opacity="0.72"></line><line x1="249" y1="400" x2="551" y2="400" transform="rotate(175, 400, 400)" opacity="0.27"></line><line x1="316" y1="400" x2="484" y2="400" transform="rotate(176, 400, 400)" opacity="0.10"></line><line x1="311" y1="400" x2="489" y2="400" transform="rotate(177, 400, 400)" opacity="0.53"></line><line x1="286.5" y1="400" x2="513.5" y2="400" transform="rotate(178, 400, 400)" opacity="0.21"></line><line x1="251" y1="400" x2="549" y2="400" transform="rotate(179, 400, 400)" opacity="0.20"></line><line x1="98.5" y1="400" x2="701.5" y2="400" transform="rotate(180, 400, 400)" opacity="0.29"></line><line x1="254.5" y1="400" x2="545.5" y2="400" transform="rotate(181, 400, 400)" opacity="0.44"></line><line x1="97" y1="400" x2="703" y2="400" transform="rotate(182, 400, 400)" opacity="0.80"></line><line x1="154.5" y1="400" x2="645.5" y2="400" transform="rotate(183, 400, 400)" opacity="0.14"></line><line x1="308.5" y1="400" x2="491.5" y2="400" transform="rotate(184, 400, 400)" opacity="0.95"></line><line x1="273.5" y1="400" x2="526.5" y2="400" transform="rotate(185, 400, 400)" opacity="0.62"></line><line x1="153.5" y1="400" x2="646.5" y2="400" transform="rotate(186, 400, 400)" opacity="0.86"></line><line x1="193.5" y1="400" x2="606.5" y2="400" transform="rotate(187, 400, 400)" opacity="0.71"></line><line x1="186" y1="400" x2="614" y2="400" transform="rotate(188, 400, 400)" opacity="0.72"></line><line x1="333.5" y1="400" x2="466.5" y2="400" transform="rotate(189, 400, 400)" opacity="0.72"></line><line x1="144.5" y1="400" x2="655.5" y2="400" transform="rotate(190, 400, 400)" opacity="0.48"></line><line x1="143.5" y1="400" x2="656.5" y2="400" transform="rotate(191, 400, 400)" opacity="0.56"></line><line x1="204" y1="400" x2="596" y2="400" transform="rotate(192, 400, 400)" opacity="0.73"></line><line x1="155" y1="400" x2="645" y2="400" transform="rotate(193, 400, 400)" opacity="0.86"></line><line x1="356" y1="400" x2="444" y2="400" transform="rotate(194, 400, 400)" opacity="0.52"></line><line x1="180.5" y1="400" x2="619.5" y2="400" transform="rotate(195, 400, 400)" opacity="0.94"></line><line x1="157.5" y1="400" x2="642.5" y2="400" transform="rotate(196, 400, 400)" opacity="0.15"></line><line x1="120" y1="400" x2="680" y2="400" transform="rotate(197, 400, 400)" opacity="0.55"></line><line x1="287" y1="400" x2="513" y2="400" transform="rotate(198, 400, 400)" opacity="0.99"></line><line x1="141" y1="400" x2="659" y2="400" transform="rotate(199, 400, 400)" opacity="0.80"></line><line x1="310.5" y1="400" x2="489.5" y2="400" transform="rotate(200, 400, 400)" opacity="0.55"></line><line x1="343" y1="400" x2="457" y2="400" transform="rotate(201, 400, 400)" opacity="0.66"></line><line x1="178" y1="400" x2="622" y2="400" transform="rotate(202, 400, 400)" opacity="0.39"></line><line x1="260.5" y1="400" x2="539.5" y2="400" transform="rotate(203, 400, 400)" opacity="0.48"></line><line x1="111" y1="400" x2="689" y2="400" transform="rotate(204, 400, 400)" opacity="0.45"></line><line x1="330.5" y1="400" x2="469.5" y2="400" transform="rotate(205, 400, 400)" opacity="0.61"></line><line x1="273" y1="400" x2="527" y2="400" transform="rotate(206, 400, 400)" opacity="0.81"></line><line x1="97.5" y1="400" x2="702.5" y2="400" transform="rotate(207, 400, 400)" opacity="0.63"></line><line x1="102.5" y1="400" x2="697.5" y2="400" transform="rotate(208, 400, 400)" opacity="0.52"></line><line x1="283.5" y1="400" x2="516.5" y2="400" transform="rotate(209, 400, 400)" opacity="0.59"></line><line x1="327.5" y1="400" x2="472.5" y2="400" transform="rotate(210, 400, 400)" opacity="0.95"></line><line x1="213.5" y1="400" x2="586.5" y2="400" transform="rotate(211, 400, 400)" opacity="0.78"></line><line x1="107.5" y1="400" x2="692.5" y2="400" transform="rotate(212, 400, 400)" opacity="0.56"></line><line x1="239" y1="400" x2="561" y2="400" transform="rotate(213, 400, 400)" opacity="0.34"></line><line x1="299" y1="400" x2="501" y2="400" transform="rotate(214, 400, 400)" opacity="0.45"></line><line x1="324.5" y1="400" x2="475.5" y2="400" transform="rotate(215, 400, 400)" opacity="0.59"></line><line x1="119" y1="400" x2="681" y2="400" transform="rotate(216, 400, 400)" opacity="0.09"></line><line x1="145.5" y1="400" x2="654.5" y2="400" transform="rotate(217, 400, 400)" opacity="0.83"></line><line x1="271.5" y1="400" x2="528.5" y2="400" transform="rotate(218, 400, 400)" opacity="0.77"></line><line x1="266.5" y1="400" x2="533.5" y2="400" transform="rotate(219, 400, 400)" opacity="0.61"></line><line x1="281.5" y1="400" x2="518.5" y2="400" transform="rotate(220, 400, 400)" opacity="0.35"></line><line x1="236.5" y1="400" x2="563.5" y2="400" transform="rotate(221, 400, 400)" opacity="0.55"></line><line x1="327" y1="400" x2="473" y2="400" transform="rotate(222, 400, 400)" opacity="0.69"></line><line x1="115.5" y1="400" x2="684.5" y2="400" transform="rotate(223, 400, 400)" opacity="0.07"></line><line x1="286.5" y1="400" x2="513.5" y2="400" transform="rotate(224, 400, 400)" opacity="0.14"></line><line x1="133" y1="400" x2="667" y2="400" transform="rotate(225, 400, 400)" opacity="0.41"></line><line x1="346" y1="400" x2="454" y2="400" transform="rotate(226, 400, 400)" opacity="0.23"></line><line x1="97.5" y1="400" x2="702.5" y2="400" transform="rotate(227, 400, 400)" opacity="0.63"></line><line x1="116" y1="400" x2="684" y2="400" transform="rotate(228, 400, 400)" opacity="0.42"></line><line x1="129" y1="400" x2="671" y2="400" transform="rotate(229, 400, 400)" opacity="0.90"></line><line x1="195.5" y1="400" x2="604.5" y2="400" transform="rotate(230, 400, 400)" opacity="0.45"></line><line x1="344" y1="400" x2="456" y2="400" transform="rotate(231, 400, 400)" opacity="0.77"></line><line x1="304.5" y1="400" x2="495.5" y2="400" transform="rotate(232, 400, 400)" opacity="0.27"></line><line x1="94.5" y1="400" x2="705.5" y2="400" transform="rotate(233, 400, 400)" opacity="0.17"></line><line x1="309" y1="400" x2="491" y2="400" transform="rotate(234, 400, 400)" opacity="0.42"></line><line x1="363" y1="400" x2="437" y2="400" transform="rotate(235, 400, 400)" opacity="0.24"></line><line x1="231.5" y1="400" x2="568.5" y2="400" transform="rotate(236, 400, 400)" opacity="0.36"></line><line x1="182.5" y1="400" x2="617.5" y2="400" transform="rotate(237, 400, 400)" opacity="0.86"></line><line x1="135" y1="400" x2="665" y2="400" transform="rotate(238, 400, 400)" opacity="0.08"></line><line x1="104" y1="400" x2="696" y2="400" transform="rotate(239, 400, 400)" opacity="0.93"></line><line x1="370.5" y1="400" x2="429.5" y2="400" transform="rotate(240, 400, 400)" opacity="0.86"></line><line x1="123.5" y1="400" x2="676.5" y2="400" transform="rotate(241, 400, 400)" opacity="0.08"></line><line x1="144" y1="400" x2="656" y2="400" transform="rotate(242, 400, 400)" opacity="0.90"></line><line x1="176" y1="400" x2="624" y2="400" transform="rotate(243, 400, 400)" opacity="0.78"></line><line x1="356.5" y1="400" x2="443.5" y2="400" transform="rotate(244, 400, 400)" opacity="0.93"></line><line x1="127" y1="400" x2="673" y2="400" transform="rotate(245, 400, 400)" opacity="0.92"></line><line x1="118" y1="400" x2="682" y2="400" transform="rotate(246, 400, 400)" opacity="0.09"></line><line x1="220" y1="400" x2="580" y2="400" transform="rotate(247, 400, 400)" opacity="0.98"></line><line x1="320.5" y1="400" x2="479.5" y2="400" transform="rotate(248, 400, 400)" opacity="0.89"></line><line x1="293.5" y1="400" x2="506.5" y2="400" transform="rotate(249, 400, 400)" opacity="0.40"></line><line x1="327.5" y1="400" x2="472.5" y2="400" transform="rotate(250, 400, 400)" opacity="0.22"></line><line x1="201.5" y1="400" x2="598.5" y2="400" transform="rotate(251, 400, 400)" opacity="0.48"></line><line x1="162" y1="400" x2="638" y2="400" transform="rotate(252, 400, 400)" opacity="0.47"></line><line x1="194" y1="400" x2="606" y2="400" transform="rotate(253, 400, 400)" opacity="0.44"></line><line x1="210.5" y1="400" x2="589.5" y2="400" transform="rotate(254, 400, 400)" opacity="0.52"></line><line x1="100.5" y1="400" x2="699.5" y2="400" transform="rotate(255, 400, 400)" opacity="0.76"></line><line x1="301.5" y1="400" x2="498.5" y2="400" transform="rotate(256, 400, 400)" opacity="0.95"></line><line x1="146.5" y1="400" x2="653.5" y2="400" transform="rotate(257, 400, 400)" opacity="0.78"></line><line x1="138" y1="400" x2="662" y2="400" transform="rotate(258, 400, 400)" opacity="0.11"></line><line x1="258.5" y1="400" x2="541.5" y2="400" transform="rotate(259, 400, 400)" opacity="0.94"></line><line x1="149" y1="400" x2="651" y2="400" transform="rotate(260, 400, 400)" opacity="0.15"></line><line x1="289.5" y1="400" x2="510.5" y2="400" transform="rotate(261, 400, 400)" opacity="0.17"></line><line x1="181" y1="400" x2="619" y2="400" transform="rotate(262, 400, 400)" opacity="0.13"></line><line x1="234" y1="400" x2="566" y2="400" transform="rotate(263, 400, 400)" opacity="0.50"></line><line x1="211.5" y1="400" x2="588.5" y2="400" transform="rotate(264, 400, 400)" opacity="0.40"></line><line x1="298" y1="400" x2="502" y2="400" transform="rotate(265, 400, 400)" opacity="0.95"></line><line x1="321" y1="400" x2="479" y2="400" transform="rotate(266, 400, 400)" opacity="0.31"></line><line x1="99.5" y1="400" x2="700.5" y2="400" transform="rotate(267, 400, 400)" opacity="0.31"></line><line x1="283.5" y1="400" x2="516.5" y2="400" transform="rotate(268, 400, 400)" opacity="0.60"></line><line x1="300.5" y1="400" x2="499.5" y2="400" transform="rotate(269, 400, 400)" opacity="0.19"></line><line x1="110.5" y1="400" x2="689.5" y2="400" transform="rotate(270, 400, 400)" opacity="0.64"></line><line x1="293.5" y1="400" x2="506.5" y2="400" transform="rotate(271, 400, 400)" opacity="0.15"></line><line x1="274.5" y1="400" x2="525.5" y2="400" transform="rotate(272, 400, 400)" opacity="0.18"></line><line x1="227" y1="400" x2="573" y2="400" transform="rotate(273, 400, 400)" opacity="0.36"></line><line x1="285.5" y1="400" x2="514.5" y2="400" transform="rotate(274, 400, 400)" opacity="0.17"></line><line x1="308.5" y1="400" x2="491.5" y2="400" transform="rotate(275, 400, 400)" opacity="0.11"></line><line x1="168" y1="400" x2="632" y2="400" transform="rotate(276, 400, 400)" opacity="0.51"></line><line x1="122" y1="400" x2="678" y2="400" transform="rotate(277, 400, 400)" opacity="0.79"></line><line x1="168.5" y1="400" x2="631.5" y2="400" transform="rotate(278, 400, 400)" opacity="0.96"></line><line x1="169" y1="400" x2="631" y2="400" transform="rotate(279, 400, 400)" opacity="0.36"></line><line x1="215" y1="400" x2="585" y2="400" transform="rotate(280, 400, 400)" opacity="0.46"></line><line x1="219" y1="400" x2="581" y2="400" transform="rotate(281, 400, 400)" opacity="0.48"></line><line x1="124" y1="400" x2="676" y2="400" transform="rotate(282, 400, 400)" opacity="0.43"></line><line x1="232" y1="400" x2="568" y2="400" transform="rotate(283, 400, 400)" opacity="0.74"></line><line x1="122.5" y1="400" x2="677.5" y2="400" transform="rotate(284, 400, 400)" opacity="0.20"></line><line x1="210.5" y1="400" x2="589.5" y2="400" transform="rotate(285, 400, 400)" opacity="0.34"></line><line x1="207" y1="400" x2="593" y2="400" transform="rotate(286, 400, 400)" opacity="0.93"></line><line x1="210.5" y1="400" x2="589.5" y2="400" transform="rotate(287, 400, 400)" opacity="0.25"></line><line x1="256" y1="400" x2="544" y2="400" transform="rotate(288, 400, 400)" opacity="0.72"></line><line x1="334" y1="400" x2="466" y2="400" transform="rotate(289, 400, 400)" opacity="0.52"></line></g></svg>