<?xml version="1.0" standalone="no"?>
<!DOCTYPE svg PUBLIC "-//W3C//DTD SVG 20010904//EN"
 "http://www.w3.org/TR/2001/REC-SVG-20010904/DTD/svg10.dtd">
<svg version="1.0" xmlns="http://www.w3.org/2000/svg"
 width="1000.000000pt" height="209.000000pt" viewBox="0 0 1000.000000 209.000000"
 preserveAspectRatio="xMidYMid meet">

<g transform="translate(0.000000,209.000000) scale(0.100000,-0.100000)"
fill="#000000" stroke="none">
<path d="M542 1638 c-8 -8 -12 -45 -12 -100 l0 -88 -38 0 c-21 0 -45 -6 -54
-12 -10 -8 -40 -112 -81 -283 -67 -279 -70 -305 -27 -305 19 0 20 -8 20 -186
0 -109 4 -193 10 -205 10 -18 29 -19 698 -19 522 0 691 3 700 12 9 9 12 68 12
205 0 182 1 193 19 193 46 0 44 17 -25 301 -42 174 -72 279 -82 287 -12 9
-120 12 -459 12 l-443 0 0 88 c0 55 -4 92 -12 100 -8 8 -48 12 -113 12 -65 0
-105 -4 -113 -12z m168 -123 l0 -65 -55 0 -55 0 0 65 0 65 55 0 55 0 0 -65z
m280 -142 c-1 -5 -9 -18 -19 -30 -19 -23 -23 -23 -260 -23 -133 0 -241 2 -241
4 0 3 4 16 10 30 l10 26 250 0 c137 0 250 -3 250 -7z m650 -19 c6 -14 10 -27
10 -30 0 -2 -107 -4 -237 -4 -206 0 -239 2 -255 17 -45 40 -31 43 227 43 l245
0 10 -26z m-446 -169 l76 -90 0 -292 0 -293 -24 0 -24 0 -4 159 c-3 143 -5
162 -24 188 -75 101 -207 97 -268 -7 -18 -30 -21 -55 -24 -187 l-4 -153 -24 0
-24 0 0 293 1 292 106 123 106 123 27 -33 c15 -18 62 -73 104 -123z m-314 59
c0 -4 -23 -32 -50 -64 l-50 -58 0 -101 0 -101 -200 0 c-174 0 -200 2 -200 16
0 17 69 294 76 306 6 9 424 11 424 2z m824 -144 c20 -83 36 -158 36 -165 0
-13 -32 -15 -200 -15 l-200 0 0 102 0 101 -50 58 c-27 32 -50 60 -50 63 0 3
96 6 214 6 l214 0 36 -150z m-583 -266 c23 -24 24 -33 27 -175 l4 -149 -86 0
-86 0 0 154 0 155 26 20 c37 29 85 27 115 -5z m-343 -1 c-3 -16 -20 -18 -178
-18 -158 0 -175 2 -178 18 -3 16 11 17 178 17 167 0 181 -1 178 -17z m920 0
c-3 -16 -20 -18 -178 -18 -158 0 -175 2 -178 18 -3 16 11 17 178 17 167 0 181
-1 178 -17z m-1118 -208 l0 -115 -80 0 -80 0 0 115 0 115 80 0 80 0 0 -115z
m200 0 l0 -115 -65 0 -65 0 0 115 0 115 65 0 65 0 0 -115z m690 0 l0 -115 -65
0 -65 0 0 115 0 115 65 0 65 0 0 -115z m230 0 l0 -115 -80 0 -80 0 0 115 0
115 80 0 80 0 0 -115z"/>
<path d="M1010 1015 l0 -35 50 0 50 0 0 35 0 35 -50 0 -50 0 0 -35z"/>
</g>
</svg>
